<svg width="10" height="10" viewBox="0 0 10 10" fill="none" xmlns="http://www.w3.org/2000/svg">
<path d="M2.7484 0C2.14851 0 1.66667 0.489456 1.66667 1.08173C1.66667 1.29553 1.72966 1.49739 1.83894 1.66667H0.256413C0.248404 1.66629 0.240383 1.66629 0.232374 1.66667C0.16862 1.67268 0.109422 1.70232 0.0664203 1.74977C0.0234187 1.79722 -0.000273731 1.85904 2.38654e-06 1.92308V4.23077C9.18574e-06 4.29877 0.0270259 4.36399 0.0751107 4.41207C0.123195 4.46016 0.18841 4.48717 0.256413 4.48718H0.769233V9.74359C0.76924 9.81159 0.796257 9.87681 0.844341 9.92489C0.892426 9.97298 0.957641 9.99999 1.02564 10H8.97436C9.04236 9.99999 9.10758 9.97298 9.15566 9.92489C9.20375 9.87681 9.23076 9.81159 9.23077 9.74359V5.25641C9.23125 5.22243 9.22497 5.1887 9.2123 5.15717C9.19963 5.12564 9.18082 5.09694 9.15696 5.07274C9.13311 5.04855 9.10468 5.02933 9.07333 5.01622C9.04198 5.0031 9.00834 4.99635 8.97436 4.99635C8.94038 4.99635 8.90674 5.0031 8.87539 5.01622C8.84404 5.02933 8.81561 5.04855 8.79175 5.07274C8.7679 5.09694 8.74909 5.12564 8.73642 5.15717C8.72375 5.1887 8.71747 5.22243 8.71795 5.25641V9.48718H5.25641V4.48718H9.74359C9.81159 4.48717 9.87681 4.46016 9.92489 4.41207C9.97298 4.36399 9.99999 4.29877 10 4.23077V1.92308C9.99999 1.85507 9.97298 1.78986 9.92489 1.74178C9.87681 1.69369 9.81159 1.66667 9.74359 1.66667H8.16106C8.27034 1.49739 8.33333 1.29553 8.33333 1.08173C8.33333 0.489456 7.85149 0 7.2516 0C6.62272 0 6.16889 0.296829 5.81731 0.633013C5.51971 0.917578 5.27345 1.22876 5 1.46635C4.72655 1.22876 4.48029 0.917578 4.18269 0.633013C3.83111 0.296829 3.37728 0 2.7484 0ZM2.7484 0.512821C3.22485 0.512821 3.51777 0.710764 3.82612 1.00561C4.02995 1.2005 4.22754 1.43837 4.45914 1.66667H2.6843C2.66057 1.65334 2.63488 1.64387 2.60818 1.63862C2.36017 1.56942 2.17949 1.34191 2.17949 1.08173C2.17949 0.758343 2.41851 0.512821 2.7484 0.512821ZM7.2516 0.512821C7.5815 0.512821 7.82051 0.758343 7.82051 1.08173C7.82051 1.34191 7.63983 1.56942 7.39183 1.63862C7.36513 1.64387 7.33943 1.65334 7.31571 1.66667H5.54087C5.77246 1.43837 5.97006 1.2005 6.17388 1.00561C6.48223 0.710764 6.77515 0.512821 7.2516 0.512821ZM0.512823 2.17949H4.74359V3.97436H0.512823V2.17949ZM5.25641 2.17949H9.48718V3.97436H5.25641V2.17949ZM1.28205 4.48718H4.74359V9.48718H1.28205V4.48718Z" fill="#5C5E5E"/>
</svg>
