<svg width="11" height="9" viewBox="0 0 11 9" fill="none" xmlns="http://www.w3.org/2000/svg">
<path d="M1.25003 0.670532C0.54848 0.670532 2.5027e-05 1.22663 2.5027e-05 1.93795V4.21929C-0.000443723 4.25288 0.00567643 4.28623 0.0180298 4.3174C0.0303832 4.34857 0.0487234 4.37694 0.0719846 4.40086C0.0952458 4.42478 0.122964 4.44378 0.153529 4.45674C0.184093 4.46971 0.216894 4.47639 0.250026 4.47639C0.283157 4.47639 0.315959 4.46971 0.346523 4.45674C0.377088 4.44378 0.404806 4.42478 0.428067 4.40086C0.451328 4.37694 0.469669 4.34857 0.482022 4.3174C0.494375 4.28623 0.500495 4.25288 0.500027 4.21929V1.93795C0.500027 1.46967 0.788185 1.1775 1.25003 1.1775H9.75006C10.2119 1.1775 10.5001 1.46967 10.5001 1.93795V7.51457C10.5001 7.98281 10.2119 8.27502 9.75006 8.27502H1.25003C0.788191 8.27502 0.500027 7.98281 0.500027 7.51457V5.23322C0.500495 5.19963 0.494375 5.16628 0.482022 5.13511C0.469669 5.10394 0.451328 5.07557 0.428067 5.05165C0.404806 5.02773 0.377088 5.00874 0.346523 4.99577C0.315959 4.9828 0.283157 4.97613 0.250026 4.97613C0.216894 4.97613 0.184093 4.9828 0.153529 4.99577C0.122964 5.00874 0.0952458 5.02773 0.0719846 5.05165C0.0487234 5.07557 0.0303832 5.10394 0.0180298 5.13511C0.00567643 5.16628 -0.000443723 5.19963 2.5027e-05 5.23322V7.51457C2.5027e-05 8.22588 0.548474 8.78198 1.25003 8.78198H9.75006C10.4516 8.78198 11.0001 8.22588 11.0001 7.51457V1.93795C11.0001 1.22663 10.4516 0.670532 9.75006 0.670532H1.25003ZM1.23831 2.44095C1.18414 2.44242 1.1319 2.4617 1.08947 2.49588C1.04704 2.53006 1.0167 2.57729 1.00304 2.63046C0.989381 2.68363 0.993129 2.73987 1.01372 2.7907C1.03431 2.84152 1.07063 2.88419 1.11722 2.91227L3.89848 4.65497L1.1094 6.54024C1.05398 6.57806 1.01564 6.63665 1.00282 6.70313C0.989997 6.76961 1.00375 6.83853 1.04104 6.89472C1.07834 6.95092 1.13613 6.9898 1.20169 7.00279C1.26726 7.01579 1.33523 7.00185 1.39065 6.96404L4.37113 4.94805L5.36723 5.57384C5.40703 5.59914 5.45306 5.61256 5.50004 5.61256C5.54702 5.61256 5.59305 5.59914 5.63286 5.57384L6.62895 4.94805L9.60943 6.96404C9.66486 7.00185 9.73283 7.01579 9.79839 7.00279C9.86396 6.9898 9.92175 6.95092 9.95904 6.89472C9.99634 6.83853 10.0101 6.76961 9.99727 6.70313C9.98445 6.63665 9.94611 6.57806 9.89068 6.54024L7.10161 4.65497L9.88287 2.91227C9.91083 2.89459 9.93509 2.8715 9.95425 2.84431C9.97341 2.81712 9.9871 2.78638 9.99454 2.75383C10.002 2.72127 10.003 2.68755 9.99761 2.65459C9.99219 2.62163 9.98043 2.59008 9.96299 2.56173C9.94554 2.53338 9.92276 2.50879 9.89595 2.48937C9.86913 2.46994 9.8388 2.45607 9.8067 2.44853C9.77459 2.44099 9.74134 2.43994 9.70883 2.44544C9.67632 2.45093 9.6452 2.46287 9.61724 2.48056L5.50004 5.05895L1.38284 2.48056C1.33979 2.4527 1.28935 2.43887 1.23831 2.44095Z" fill="#A2A3A6"/>
</svg>
