<svg width="21" height="10" viewBox="0 0 21 10" fill="none" xmlns="http://www.w3.org/2000/svg">
<path d="M5.17383 9H3.36328V4.04297L3.38086 3.22852L3.41016 2.33789C3.10938 2.63867 2.90039 2.83594 2.7832 2.92969L1.79883 3.7207L0.925781 2.63086L3.68555 0.433594H5.17383V9ZM10.5059 0.322266C11.3262 0.322266 11.9863 0.509766 12.4863 0.884766C12.9902 1.25586 13.2422 1.75781 13.2422 2.39062C13.2422 2.82812 13.1211 3.21875 12.8789 3.5625C12.6367 3.90234 12.2461 4.20703 11.707 4.47656C12.3477 4.82031 12.8066 5.17969 13.084 5.55469C13.3652 5.92578 13.5059 6.33398 13.5059 6.7793C13.5059 7.48242 13.2305 8.04883 12.6797 8.47852C12.1289 8.9043 11.4043 9.11719 10.5059 9.11719C9.56836 9.11719 8.83203 8.91797 8.29688 8.51953C7.76172 8.12109 7.49414 7.55664 7.49414 6.82617C7.49414 6.33789 7.62305 5.9043 7.88086 5.52539C8.14258 5.14648 8.56055 4.8125 9.13477 4.52344C8.64648 4.21484 8.29492 3.88477 8.08008 3.5332C7.86523 3.18164 7.75781 2.79688 7.75781 2.37891C7.75781 1.76562 8.01172 1.26953 8.51953 0.890625C9.02734 0.511719 9.68945 0.322266 10.5059 0.322266ZM9.16992 6.7207C9.16992 7.05664 9.28711 7.31836 9.52148 7.50586C9.75586 7.69336 10.0762 7.78711 10.4824 7.78711C10.9316 7.78711 11.2676 7.69141 11.4902 7.5C11.7129 7.30469 11.8242 7.04883 11.8242 6.73242C11.8242 6.4707 11.7129 6.22656 11.4902 6C11.2715 5.76953 10.9141 5.52539 10.418 5.26758C9.58594 5.65039 9.16992 6.13477 9.16992 6.7207ZM10.4941 1.64648C10.1855 1.64648 9.93555 1.72656 9.74414 1.88672C9.55664 2.04297 9.46289 2.25391 9.46289 2.51953C9.46289 2.75391 9.53711 2.96484 9.68555 3.15234C9.83789 3.33594 10.1113 3.52539 10.5059 3.7207C10.8887 3.54102 11.1562 3.35742 11.3086 3.16992C11.4609 2.98242 11.5371 2.76562 11.5371 2.51953C11.5371 2.25 11.4395 2.03711 11.2441 1.88086C11.0488 1.72461 10.7988 1.64648 10.4941 1.64648ZM16.7109 5.41406H14.4434V4.13086H16.7109V1.8457H17.9941V4.13086H20.2617V5.41406H17.9941V7.66992H16.7109V5.41406Z" fill="white"/>
</svg>
